<?xml version="1.0" encoding="UTF-8"?>
<svg xmlns="http://www.w3.org/2000/svg"
	xmlns:xlink="http://www.w3.org/1999/xlink" width="32px" height="32px" viewBox="0 0 32 32" version="1.1">
	<g id="surface1">
		<path style="fill-rule:nonzero;fill:rgb(100%,100%,100%);fill-opacity:1;stroke-width:20;stroke-linecap:butt;stroke-linejoin:miter;stroke:rgb(35.294118%,66.666667%,98.039216%);stroke-opacity:1;stroke-miterlimit:4;" d="M 52.978516 54.003906 L 250.976562 54.003906 L 250.976562 343.017578 L 52.978516 343.017578 Z M 52.978516 54.003906 " transform="matrix(0.08,0,0,0.08,0,0)"/>
		<path style="fill-rule:nonzero;fill:rgb(100%,100%,100%);fill-opacity:1;stroke-width:1;stroke-linecap:butt;stroke-linejoin:miter;stroke:rgb(35.294118%,66.666667%,98.039216%);stroke-opacity:1;stroke-miterlimit:4;" d="M 91.015625 212.988281 L 91.992188 212.988281 L 91.992188 214.990234 L 91.015625 214.990234 Z M 91.015625 212.988281 " transform="matrix(0.08,0,0,0.08,0,0)"/>
		<path style="fill-rule:nonzero;fill:rgb(100%,100%,100%);fill-opacity:1;stroke-width:1;stroke-linecap:butt;stroke-linejoin:miter;stroke:rgb(35.294118%,66.666667%,98.039216%);stroke-opacity:1;stroke-miterlimit:4;" d="M 91.015625 212.988281 L 91.992188 212.988281 L 91.992188 214.990234 L 91.015625 214.990234 Z M 91.015625 212.988281 " transform="matrix(0.08,0,0,0.08,0,0)"/>
		<path style="fill:none;stroke-width:1;stroke-linecap:butt;stroke-linejoin:miter;stroke:rgb(35.294118%,66.666667%,98.039216%);stroke-opacity:1;stroke-miterlimit:4;" d="M 152.001953 314.990234 L 152.978516 316.015625 " transform="matrix(0.08,0,0,0.08,0,0)"/>
		<path style="fill-rule:nonzero;fill:rgb(100%,100%,100%);fill-opacity:1;stroke-width:1;stroke-linecap:butt;stroke-linejoin:miter;stroke:rgb(35.294118%,66.666667%,98.039216%);stroke-opacity:1;stroke-miterlimit:4;" d="M 91.015625 212.988281 L 91.992188 212.988281 L 91.992188 214.990234 L 91.015625 214.990234 Z M 91.015625 212.988281 " transform="matrix(0.08,0,0,0.08,0,0)"/>
		<path style="fill-rule:nonzero;fill:rgb(100%,100%,100%);fill-opacity:1;stroke-width:1;stroke-linecap:butt;stroke-linejoin:miter;stroke:rgb(35.294118%,66.666667%,98.039216%);stroke-opacity:1;stroke-miterlimit:4;" d="M 91.015625 212.988281 L 91.992188 212.988281 L 91.992188 214.990234 L 91.015625 214.990234 Z M 91.015625 212.988281 " transform="matrix(0.08,0,0,0.08,0,0)"/>
		<path style="fill:none;stroke-width:8;stroke-linecap:butt;stroke-linejoin:miter;stroke:rgb(35.294118%,66.666667%,98.039216%);stroke-opacity:1;stroke-miterlimit:4;" d="M 85.986328 231.005859 L 214.013672 231.005859 L 214.013672 239.013672 L 85.986328 239.013672 Z M 85.986328 231.005859 " transform="matrix(0.08,0,0,0.08,0,0)"/>
		<path style="fill-rule:nonzero;fill:rgb(100%,100%,100%);fill-opacity:1;stroke-width:1;stroke-linecap:butt;stroke-linejoin:miter;stroke:rgb(35.294118%,66.666667%,98.039216%);stroke-opacity:1;stroke-miterlimit:4;" d="M 256.982422 210.986328 L 258.007812 210.986328 L 258.007812 212.988281 L 256.982422 212.988281 Z M 256.982422 210.986328 " transform="matrix(0.08,0,0,0.08,0,0)"/>
		<path style="fill-rule:nonzero;fill:rgb(100%,100%,100%);fill-opacity:1;stroke-width:1;stroke-linecap:butt;stroke-linejoin:miter;stroke:rgb(35.294118%,66.666667%,98.039216%);stroke-opacity:1;stroke-miterlimit:4;" d="M 256.982422 210.986328 L 258.007812 210.986328 L 258.007812 212.988281 L 256.982422 212.988281 Z M 256.982422 210.986328 " transform="matrix(0.08,0,0,0.08,0,0)"/>
		<path style="fill-rule:nonzero;fill:rgb(100%,100%,100%);fill-opacity:1;stroke-width:1;stroke-linecap:butt;stroke-linejoin:miter;stroke:rgb(35.294118%,66.666667%,98.039216%);stroke-opacity:1;stroke-miterlimit:4;" d="M 256.982422 210.986328 L 258.007812 210.986328 L 258.007812 212.988281 L 256.982422 212.988281 Z M 256.982422 210.986328 " transform="matrix(0.08,0,0,0.08,0,0)"/>
		<path style="fill-rule:nonzero;fill:rgb(100%,100%,100%);fill-opacity:1;stroke-width:1;stroke-linecap:butt;stroke-linejoin:miter;stroke:rgb(35.294118%,66.666667%,98.039216%);stroke-opacity:1;stroke-miterlimit:4;" d="M 256.982422 210.986328 L 258.007812 210.986328 L 258.007812 212.988281 L 256.982422 212.988281 Z M 256.982422 210.986328 " transform="matrix(0.08,0,0,0.08,0,0)"/>
		<path style="fill:none;stroke-width:8;stroke-linecap:butt;stroke-linejoin:miter;stroke:rgb(35.294118%,66.666667%,98.039216%);stroke-opacity:1;stroke-miterlimit:4;" d="M 85.986328 208.984375 L 214.013672 208.984375 L 214.013672 216.992188 L 85.986328 216.992188 Z M 85.986328 208.984375 " transform="matrix(0.08,0,0,0.08,0,0)"/>
		<path style="fill:none;stroke-width:10;stroke-linecap:butt;stroke-linejoin:miter;stroke:rgb(35.294118%,66.666667%,98.039216%);stroke-opacity:1;stroke-miterlimit:4;" d="M 100.976562 96.484375 C 100.976562 93.994141 98.535156 91.992188 95.507812 91.992188 C 92.480469 91.992188 89.990234 93.994141 89.990234 96.484375 C 89.990234 98.974609 92.480469 100.976562 95.507812 100.976562 C 98.535156 100.976562 100.976562 98.974609 100.976562 96.484375 Z M 100.976562 96.484375 " transform="matrix(0.08,0,0,0.08,0,0)"/>
		<path style="fill:none;stroke-width:10;stroke-linecap:butt;stroke-linejoin:miter;stroke:rgb(35.294118%,66.666667%,98.039216%);stroke-opacity:1;stroke-miterlimit:4;" d="M 129.003906 96.484375 C 129.003906 93.994141 126.513672 91.992188 123.486328 91.992188 C 120.458984 91.992188 118.017578 93.994141 118.017578 96.484375 C 118.017578 98.974609 120.458984 100.976562 123.486328 100.976562 C 126.513672 100.976562 129.003906 98.974609 129.003906 96.484375 Z M 129.003906 96.484375 " transform="matrix(0.08,0,0,0.08,0,0)"/>
		<path style="fill:none;stroke-width:8;stroke-linecap:butt;stroke-linejoin:miter;stroke:rgb(35.294118%,66.666667%,98.039216%);stroke-opacity:1;stroke-miterlimit:4;" d="M 85.986328 252.978516 L 214.013672 252.978516 L 214.013672 260.986328 L 85.986328 260.986328 Z M 85.986328 252.978516 " transform="matrix(0.08,0,0,0.08,0,0)"/>
		<path style="fill:none;stroke-width:8;stroke-linecap:butt;stroke-linejoin:miter;stroke:rgb(35.294118%,66.666667%,98.039216%);stroke-opacity:1;stroke-miterlimit:4;" d="M 85.986328 275.976562 L 214.013672 275.976562 L 214.013672 283.984375 L 85.986328 283.984375 Z M 85.986328 275.976562 " transform="matrix(0.08,0,0,0.08,0,0)"/>
	</g>
</svg>
